<svg id="Layer_1" data-name="Layer 1" xmlns="http://www.w3.org/2000/svg" viewBox="0 0 1224 199.16"><title>benchmade-logo-white</title><path d="M1215.27,67.82c0,1.57-1.48,2.17-2.93,2.17H1211V65.7h1.58c1.48,0,2.68.26,2.68,2.12m2.49,7.81-2.9-4.73a3.35,3.35,0,0,0,2.27-3.5c0-2.42-1.33-3-4.1-3h-3.87V75.63H1211V71.31h1.08c.31,0,.66,0,.94,0l2.43,4.35Zm4.47-5.58a9.12,9.12,0,1,1-9.11-9.61,9.3,9.3,0,0,1,9.11,9.61m1.77,0a10.88,10.88,0,1,0-10.88,11,11,11,0,0,0,10.88-11m-1009,99V147.23H165.59V127.57h44.35V106.42H165.59V88h47.88V66.82h-77V169.07Zm792.9-19.53h7.73c13.83,0,25.64-8.54,25.64-32.55,0-15.73-6.1-30.92-24.14-30.92h-9.23ZM978.57,66.81h41.36c34.18,0,52.22,21.43,52.22,50.31,0,22.92-10.18,51.95-54.79,51.95H978.57ZM874.71,125.23l9.48-28.85h.26l8.89,28.85Zm32.12,43.84H938.3l-35-102.25H871.85L837.12,169.07h23.19l7.29-22.19H900ZM734.21,150.36,707.94,110.7v57.64H680.5V67.41h29.16s-11.47-18.53-37.29-37.13-44.77-25.83-53-20.49,1.2,25.14,4.82,33.92,9.12,22.12,11.53,24.45,6.37,3.27,8.79,5.16,6,5.34,6,7.92-10.33,4.65-11.7,7.07-2.08,6,.16,16.87,3.79,16,5.52,17.39,4.3,1.55,7.22,2.07,6.89,1.2,7.92,2.92-.68,6-1,9.65.69,10.33,1.9,16.52,3.06,17,5.38,18.78,4.91,1.28,6.07,2.44a4.65,4.65,0,0,1,.91,3.88c-.14.9.9,8,3.34,13.31s7,15.1,13,15.1,12.08-18.18,15.7-29.54,8.19-22.6,16.07-22.6,4,9.79,13.17,9.79h0c9.17,0,5.3-9.79,13.17-9.79s12.46,11.24,16.08,22.6,9.62,29.54,15.69,29.54,10.59-9.82,13-15.1,3.49-12.41,3.36-13.31a4.64,4.64,0,0,1,.9-3.88c1.16-1.16,3.75-.64,6.07-2.44s4.18-12.58,5.39-18.78,2.23-12.91,1.89-16.52-2.07-7.92-1-9.65,5-2.41,7.93-2.92,5.51-.69,7.23-2.07,3.27-6.54,5.51-17.39,1.54-14.46.17-16.87-11.71-4.48-11.71-7.07,3.62-6,6-7.92,6.37-2.84,8.78-5.16,7.92-15.67,11.53-24.45S857.3,15.13,849,9.79s-27.21,1.89-53,20.49-37.28,37.13-37.28,37.13h29.15V168.34H760.43V110.7l-26.15,39.66ZM524.7,169.07H554V128.25h29v40.82h29.29V66.81H583v38.65H554V66.81H524.7Zm-50.22,0V147.5h-27.8c-14.11,0-21.29-8.4-21.29-30.51,0-21.29,7.59-28.34,18.57-28.34h30.52V66.82H441.94c-24,0-47.61,15.72-47.61,52.07,0,35.53,24.28,50.18,43.4,50.18Zm-209.07,0h22.52V111h.26L330,169.07h22V66.81H329.42v54.11h-.27L292.67,66.81H265.41Zm928.52,0V147.23h-49.38V127.57h44.36V106.42h-44.36V88h47.88V66.82h-77V169.07ZM45.83,150.54H29.29V127.89H45.83c8.14,0,14.11,2.17,14.11,11.39,0,8-7,11.26-14.11,11.26M44.21,85.72c7,0,14.78,2.44,14.78,10.85,0,8.67-7.32,11-14.78,11H29.29V85.72ZM67.8,116.64c10.72-3.39,20.48-10.72,20.48-22.92C88.28,76.76,73.09,67,50,67H0V169.25H53.56c29.84,0,37.3-14.37,37.3-27.52,0-13.84-10.17-22.38-23.06-25.09" transform="translate(0 -8.08)" style="fill:#fff"/></svg>