<svg id="Layer_1" data-name="Layer 1" xmlns="http://www.w3.org/2000/svg" viewBox="0 0 546 160"><defs><style>.cls-1{fill:none;}.cls-2{fill:#433844;}.cls-3{fill:#ed1c24;}</style></defs><rect class="cls-1" x="-206.21" y="16.22" width="306.14" height="127.56"/><path class="cls-2" d="M265.38,84.33c0,2.46-.5,3.94-1.73,5.17-1.6,1.6-3.7,2.71-9.61,2.71s-8-1.11-9.48-2.71a6.59,6.59,0,0,1-1.85-5.17V67.94h-7.64V85.8c0,3.7,1.11,6,3,7.89,2.71,2.71,6.53,4.56,16,4.56s13.31-1.85,16-4.56C271.9,91.84,273,89.5,273,85.8V67.94h-7.63Z"/><polygon class="cls-2" points="209.45 92.09 199.22 67.94 190.47 67.94 180.25 92.09 167.68 67.94 158.81 67.94 174.64 97.39 185.1 97.39 194.66 74.59 204.22 97.39 214.69 97.39 230.63 67.94 222.13 67.94 209.45 92.09"/><path class="cls-2" d="M300.12,79.89c-7.52-.38-11-.76-12.2-1.13a2.31,2.31,0,0,1-1.6-2.39,2.36,2.36,0,0,1,1.48-2.27,28.55,28.55,0,0,1,7.51-.75,61.29,61.29,0,0,1,16,2.14L314.16,70c-3.57-1.38-10.47-2.51-17.12-2.51-9.12,0-13.19,1.13-15.53,3.39a9.38,9.38,0,0,0-2.21,6.29c0,2.89,1,5,2.95,6.16,2.71,1.51,7.64,2.39,15.53,2.77,6.77.38,9.11.5,10.1,1a2.41,2.41,0,0,1,1.35,2.14,2.46,2.46,0,0,1-1.72,2.52c-1.36.5-4.68.75-9.86.75A60.67,60.67,0,0,1,281.27,90l-2.84,5.4c4.07,1.76,11.46,3,19.22,3,10.35,0,14.54-1.63,16.51-3.65,1.36-1.25,2-3.14,2-5.65a7.75,7.75,0,0,0-2.34-5.91C311.2,80.89,307.51,80.26,300.12,79.89Z"/><path class="cls-2" d="M431.56,66.93c-11.33,0-15.15,2.31-17.74,5s-3.57,6.67-3.57,10.78c0,4.61,1,8,3.57,10.65s6.41,5,17.74,5,15.16-2.31,17.74-5,3.58-6,3.58-10.65c0-4.11-1-8.09-3.58-10.78S442.9,66.93,431.56,66.93ZM443,89.26c-1.48,1.67-3.82,3.08-11.46,3.08s-10-1.41-11.58-3.08c-1.11-1.16-2-3-2-6.54,0-3.08.86-5.52,2-6.68,1.61-1.67,3.95-3.08,11.58-3.08s10,1.41,11.46,3.08c1.23,1.16,2.1,3.6,2.1,6.68C445.12,86.31,444.25,88.1,443,89.26Z"/><polygon class="cls-2" points="320.57 74.1 335.1 74.1 335.1 97.39 342.74 97.39 342.74 74.1 356.29 74.1 359.62 67.94 320.57 67.94 320.57 74.1"/><polygon class="cls-2" points="489.96 74.1 493.28 67.94 458.67 67.94 458.67 97.39 466.31 97.39 466.31 86.56 483.92 86.56 486.88 80.89 466.31 80.89 466.31 74.1 489.96 74.1"/><polygon class="cls-2" points="396.82 79.32 371.94 79.32 371.94 67.94 364.3 67.94 364.3 97.39 371.94 97.39 371.94 85.36 396.82 85.36 396.82 97.39 404.46 97.39 404.46 67.94 396.82 67.94 396.82 79.32"/><rect class="cls-2" x="242.68" y="56.95" width="7.64" height="6.16"/><rect class="cls-2" x="257.76" y="56.95" width="7.64" height="6.16"/><path class="cls-3" d="M95.24,37.48A42.52,42.52,0,1,0,137.76,80,42.56,42.56,0,0,0,95.24,37.48Zm0,79.27A36.75,36.75,0,1,1,132,80,36.79,36.79,0,0,1,95.24,116.75Z"/><polygon class="cls-3" points="107.76 64.02 107.76 80.96 99.05 80.96 99.05 64.02 95.24 57.84 91.42 64.02 91.42 80.96 82.71 80.96 82.71 64.02 78.89 57.84 75.07 64.02 75.07 86.99 91.63 86.99 91.63 107.42 98.82 107.42 98.82 86.99 115.4 86.99 115.4 63.9 111.58 57.84 107.76 64.02"/></svg>