<?xml version="1.0" encoding="utf-8"?>
<!-- Generator: Adobe Illustrator 20.1.0, SVG Export Plug-In . SVG Version: 6.00 Build 0)  -->
<svg version="1.1" id="Layer_1" xmlns="http://www.w3.org/2000/svg" xmlns:xlink="http://www.w3.org/1999/xlink" x="0px" y="0px"
	 viewBox="0 0 222.1 80.4" style="enable-background:new 0 0 222.1 80.4;" xml:space="preserve">
<style type="text/css">
	.st0{fill:#005487;}
</style>
<g>
	<path class="st0" d="M14.4,66.2l-5.9,9.4l0.1,0.1c0.4,0,0.8-0.1,1.2-0.1h4.1v4.2H0.6l4.9-7.9c0.4-0.6,0.8-1.1,1.2-1.6l-0.1-0.1
		c-0.4,0.1-0.8,0.2-1.2,0.2H1.7v-4.1H14.4z"/>
	<path class="st0" d="M15.4,66.2h9.1v3.7h-4.2v1.3h3.8v3.5h-3.8v1.3h4.3v3.7h-9.3V66.2z"/>
	<path class="st0" d="M26.7,66.2h6c3.1,0,5.7,1.3,5.7,4.7c0,2.1-0.8,2.9-2.6,3.5v0.1c0.3,0.2,0.6,0.4,0.8,0.8l3,4.4h-5.7l-2.2-4.4
		h-0.1v4.4h-4.8V66.2z M31.6,72.2h0.3c0.8,0,1.6-0.1,1.6-1.1c0-1-0.7-1.2-1.6-1.2h-0.4V72.2z"/>
	<path class="st0" d="M54.9,73c0,4.4-3.4,7-7.5,7c-4.1,0-7.5-2.6-7.5-7c0-4.3,3.4-7,7.5-7S54.9,68.7,54.9,73z M44.9,73.1
		c0,1.5,1,2.6,2.5,2.6c1.5,0,2.5-1.1,2.5-2.6c0-1.4-1-2.6-2.5-2.6C45.8,70.4,44.9,71.6,44.9,73.1z"/>
	<path class="st0" d="M65,79.8h-1.5V67.6h-3.3v-1.4h8.1v1.4H65V79.8z"/>
	<path class="st0" d="M83.3,73c0,3.9-3.2,7-7.1,7c-3.9,0-7.1-3.1-7.1-7c0-3.9,3.2-7,7.1-7C80.1,66,83.3,69.1,83.3,73z M70.7,73
		c0,3.1,2.5,5.6,5.6,5.6c3.1,0,5.6-2.6,5.6-5.6c0-3.1-2.4-5.6-5.6-5.6C73.1,67.4,70.7,69.9,70.7,73z"/>
	<path class="st0" d="M86.9,78.4h3.7v1.4h-5.3V66.2h1.5V78.4z"/>
	<path class="st0" d="M92.1,66.2h7v1.4h-5.5v4H99V73h-5.4v5.3h5.5v1.4h-7V66.2z"/>
	<path class="st0" d="M103.2,79.8h-1.5V66.2h2c2.6,0,5,0.7,5,3.7c0,2.1-1.3,3.6-3.4,3.7l4.3,6.1h-1.9l-4.1-6h-0.4V79.8z M103.2,72.5
		h0.5c1.7,0,3.4-0.3,3.4-2.4c0-2.2-1.6-2.4-3.5-2.4h-0.4V72.5z"/>
	<path class="st0" d="M113.5,75.9l-1.6,3.9h-1.7l6.3-14.2l6.1,14.2h-1.7l-1.6-3.9H113.5z M116.4,69.1l-2.3,5.4h4.6L116.4,69.1z"/>
	<path class="st0" d="M124.1,65.6l10.6,11.1V66.2h1.5v14.2l-10.6-11.1v10.5h-1.5V65.6z"/>
	<path class="st0" d="M149.4,69.2c-1.1-1.1-2.6-1.8-4.1-1.8c-3,0-5.5,2.6-5.5,5.6c0,3,2.5,5.6,5.5,5.6c1.5,0,3-0.7,4.1-1.8v1.9
		c-1.2,0.8-2.6,1.3-4.1,1.3c-3.8,0-7.1-3.1-7.1-7c0-3.9,3.2-7.1,7.1-7.1c1.5,0,2.8,0.4,4.1,1.3V69.2z"/>
	<path class="st0" d="M152,66.2h7v1.4h-5.5v4h5.4V73h-5.4v5.3h5.5v1.4h-7V66.2z"/>
	<path class="st0" d="M173,66.2h1.2l-6.6,6.5l7.1,7h-1.1l-6.5-6.5l-0.4,0.4v6.1h-0.9V66.2h0.9v6.3L173,66.2z"/>
	<path class="st0" d="M188.2,80.2l-11.4-12.1v11.7H176V66l11.4,12V66.2h0.9V80.2z"/>
	<path class="st0" d="M192,79.8h-0.9V66.2h0.9V79.8z"/>
	<path class="st0" d="M198.4,77.8L198.4,77.8l4-11.6h0.9l-4.9,14l-4.9-14h0.9L198.4,77.8z"/>
	<path class="st0" d="M205.8,67v4.9h5.5v0.8h-5.5V79h5.6v0.8h-6.5V66.2h6.5V67H205.8z"/>
	<path class="st0" d="M220.3,68.4c-0.6-1-1.5-1.6-2.8-1.6c-1.5,0-2.6,1.2-2.6,2.6c0,1.4,1.4,2,2.4,2.5l2.6,1.3
		c1,0.6,1.5,1.5,1.5,2.7c0,2.2-2.1,3.9-4.2,3.9c-1.9,0-3.4-1.2-4-2.9l0.8-0.3c0.6,1.4,1.6,2.4,3.3,2.4c1.8,0,3.3-1.4,3.3-3.2
		c0-1.5-1.6-2.2-2.7-2.8l-2.4-1.3c-0.9-0.6-1.4-1.4-1.4-2.4c0-2,1.4-3.4,3.5-3.4c1.4,0,2.7,0.7,3.3,1.9L220.3,68.4z"/>
</g>
<g>
	<path class="st0" d="M181.4,23.4l-3.2,0c-2,0-3.2-1.1-3.5-2.1c-0.9-2.3-2.2-5.2-7.3-6.9v-2.6h14.1V23.4z"/>
	<g>
		<g>
			<path class="st0" d="M116.2,14.6L86.6,44.8H63.1v-2.4l29.8-30.6h23.3V14.6z M65,11.8h23.6l-2.4,2.6c-8,0.7-13.5,2.9-15.4,6.1
				c-0.5,0.7-1,1.3-2.9,1.3l-2.7,0L65,11.8z M116.2,44.8H91l2.5-2.6c10.2-1,13.5-2.3,17-6.4c0.5-0.7,1-1.3,2.8-1.3l2.8,0L116.2,44.8
				z"/>
			<path class="st0" d="M138.9,11.8h23.9v26.1c0,1.8,0.3,1.8,3.3,2.4c1.4,0.3,1.8,1.3,1.8,2.5c0,1.3,0,1.9,0,1.9h-34.4l0-2
				c0-1.2,0.4-2.3,1.9-2.5c3-0.5,3.3-0.5,3.3-2.4V11.8z"/>
		</g>
		<path class="st0" d="M82,6.6c-4.5,0.9-40.8,7.6-39.9,22.5c0.3,3.6,5.1,18,56.7,24.2c53.4,5.6,86.7-5.1,93.6-8.1
			c-20.2,10.2-57.9,14.6-93.9,12.1c-49.3-3.4-80-18.9-70.1-34C38.8,7.4,87.8-2,135.3,1.3c20.1,1.4,41.6,6.7,50.4,9.7
			C166.6,4.9,127.1-1.2,82,6.6z"/>
	</g>
	<path class="st0" d="M120.5,11.8h14.1v2.6c-5.1,1.6-6.5,4.5-7.3,6.9c-0.3,1-1.5,2.1-3.5,2.1l-3.2,0L120.5,11.8z"/>
</g>
<g>
	<path class="st0" d="M187.5,15.1c-0.1-0.3-0.2-0.5-0.5-0.6v0c0.3-0.1,0.5-0.3,0.5-0.6c0-0.2-0.1-0.5-0.2-0.6
		c-0.2-0.1-0.4-0.2-0.9-0.2c-0.4,0-0.7,0-1,0.1v2.6h0.6v-1h0.3c0.3,0,0.5,0.1,0.5,0.4c0.1,0.3,0.1,0.5,0.2,0.6h0.6
		C187.7,15.6,187.6,15.5,187.5,15.1z M186.4,14.3h-0.3v-0.7c0.1,0,0.2,0,0.3,0c0.4,0,0.5,0.2,0.5,0.4
		C187,14.1,186.7,14.3,186.4,14.3z"/>
	<path class="st0" d="M186.5,11.8c-1.5,0-2.6,1.1-2.6,2.6c0,1.4,1.2,2.6,2.6,2.6c1.5,0,2.6-1.1,2.6-2.6
		C189.1,12.9,188,11.8,186.5,11.8z M186.5,16.4c-1.2,0-2-0.9-2-2c0-1.1,0.8-2,2-2c1.1,0,2,0.9,2,2.1
		C188.4,15.5,187.6,16.4,186.5,16.4z"/>
</g>
</svg>
